<svg width="60" height="60" viewBox="0 0 60 60" fill="none" xmlns="http://www.w3.org/2000/svg">
<g clip-path="url(#clip0_5729_38065)">
<rect width="60" height="60" fill="#188182" fill-opacity="0.04"/>
<path d="M33.8807 16.0606C34.7942 16.0099 35.9837 16.0383 36.9144 16.0378L42.3349 16.0357L45.693 16.028C46.6589 16.0244 48.8221 15.7091 48.9336 17.286C49.0374 18.7505 48.9885 20.3498 48.9885 21.8287L48.9974 31.2599C49.0016 31.9991 48.995 32.2605 48.8973 32.9852C48.8859 33.0681 48.9766 34.1214 48.9778 34.3298C48.9956 37.3217 48.9885 40.3311 48.9867 43.3218L48.9885 46.3275C48.9933 47.0705 49.0058 47.7744 48.9539 48.516C48.9181 49.0311 48.5031 49.7689 48.019 49.8398C46.6619 50.0404 45.2005 49.9486 43.8232 49.959C40.7107 49.9824 37.5941 49.9375 34.4811 49.9811C33.9421 49.9883 33.8896 49.8138 33.4174 49.7715C33.3596 49.7662 32.8796 49.9557 32.6972 49.9583C31.595 49.9727 30.4699 49.9642 29.3702 49.9649L22.2413 49.9688C21.3511 49.959 20.411 50.0456 19.5331 49.9661C18.3864 49.8613 18.0292 49.2688 18.0194 48.1078C18.0107 47.0829 18.0086 46.0794 18.009 45.0669L18.0128 39.1685L18.005 35.633C18.0036 34.9791 17.9807 34.2178 18.0463 33.5719C18.1067 32.9768 18.4315 32.7285 18.8331 32.4076C18.9596 32.3954 19.0862 32.3851 19.213 32.3768C19.5425 32.3551 20.6741 32.3249 20.9695 32.3682C21.841 32.4961 24.6757 32.0912 25.2531 32.6488C25.6384 33.4437 24.4023 34.2001 24.5406 35.1834C24.7663 36.7883 26.5404 37.3278 27.4128 35.9236C28.1402 34.7527 27.1245 33.9985 26.8852 33.0569C26.6427 32.1021 29.1552 32.3454 29.6075 32.3482L32.8485 32.3498C32.7821 31.346 32.6546 26.6752 32.9643 26.0269C33.0364 25.8758 33.1455 25.7459 33.3035 25.7068C33.7167 25.6046 34.2349 26.1644 34.5843 26.3571C34.9498 26.5589 35.36 26.6346 35.7535 26.4856C36.1232 26.346 36.4672 26.0206 36.6378 25.6358C36.8268 25.2084 36.8417 24.5816 36.6956 24.1365C36.5728 23.7624 36.3152 23.4882 35.9855 23.3284C34.5825 22.6494 34.1669 23.8951 33.6058 24.0553C33.4198 24.1083 33.2409 24.0022 33.096 23.8899C32.8504 23.4447 32.815 22.9721 32.8192 22.4607C32.8336 20.7011 32.7367 18.9151 32.8493 17.1619C32.8667 16.8918 33.1604 16.5092 33.3137 16.2944L33.8807 16.0606ZM39.752 33.7503C38.922 33.8501 37.7223 33.8155 36.8476 33.8109C36.0373 33.8066 34.9176 33.8561 34.1317 33.8097C34.143 35.0357 34.1478 36.2617 34.1472 37.4878C34.1478 38.1661 34.2623 40.2165 33.7197 40.3656C32.9088 40.5883 32.0484 38.8571 30.7719 39.8357C29.153 41.0766 30.7985 43.8844 32.4337 42.7241C32.9869 42.3334 34.0268 41.4706 34.1341 42.9344C34.2229 44.141 34.093 45.5051 34.1389 46.7312C34.1419 47.2554 34.1693 47.928 34.1061 48.4372L35.5019 48.4744C39.4121 48.4776 43.7397 48.5805 47.6177 48.4451C47.5002 47.3283 47.5468 43.9723 47.5634 42.6967C47.601 39.818 47.4913 36.6734 47.5718 33.8244C45.8373 33.8169 44.0784 33.8649 42.3534 33.7817C41.9748 33.7635 41.5276 33.2376 41.6946 32.8705C41.9551 32.2997 42.2759 31.9179 42.5269 31.3072C42.4285 29.7824 41.8973 29.2504 40.4877 29.3473C39.5558 29.829 39.0949 30.555 39.5272 31.6636C39.8629 32.5242 40.8103 32.9225 39.752 33.7503ZM34.0983 21.9711C34.8603 21.6053 35.5472 21.5035 36.351 21.8642C37.0575 22.1867 37.6174 22.8037 37.9066 23.5784C38.2214 24.4081 38.2125 25.3418 37.8827 26.1642C37.2012 27.8968 35.6659 28.3518 34.1264 27.7852C34.1603 29.0646 34.2015 31.0775 34.1329 32.3415C35.4542 32.3332 37.0426 32.2896 38.3436 32.3896C37.9608 31.5232 37.8762 30.8974 38.1874 29.9472C38.445 29.1398 38.9882 28.4788 39.6959 28.1121C40.6452 27.6225 41.7595 27.7274 42.6176 28.3829C43.8983 29.4077 44.1124 30.8044 43.5841 32.3727C44.8386 32.296 46.3131 32.3348 47.5837 32.3357C47.4991 27.4519 47.5688 22.3644 47.5658 17.4646C44.646 17.5179 41.6481 17.4613 38.7199 17.4751C37.6752 17.4801 35.0613 17.5637 34.1401 17.4689C34.1466 18.6919 34.2086 20.8384 34.0983 21.9711ZM32.8437 48.4548C32.7942 46.9995 32.8613 45.582 32.8148 44.18C32.3276 44.3415 32.0523 44.4053 31.527 44.3982C29.3247 44.3676 28.1548 41.5956 29.1723 39.5849C29.5232 38.9073 30.1065 38.4101 30.7936 38.2029C31.5283 37.9759 32.1148 38.0881 32.8286 38.3086C32.7617 36.9827 32.8046 35.2033 32.8164 33.8473L32.7306 33.8032L28.8374 33.8221C28.9762 34.3368 29.0612 34.7105 29.0159 35.2621C28.8271 37.5587 26.5406 38.9242 24.6748 37.811C23.9992 37.4053 23.5029 36.718 23.2991 35.906C23.1655 35.3484 23.1534 34.7643 23.2636 34.2006C23.2829 34.0968 23.2994 33.9867 23.317 33.8818C23.2153 33.7745 19.8741 33.8375 19.38 33.8333C19.4243 34.3854 19.4213 34.9519 19.4148 35.5068C19.3646 39.7863 19.4804 44.0941 19.3953 48.3702C19.5542 48.4933 19.63 48.447 19.8683 48.4522C23.5346 48.572 27.2556 48.4275 30.9266 48.4809C31.5546 48.49 32.2173 48.4841 32.8437 48.4548Z" fill="#188182"/>
<path d="M21.0523 10C21.2377 10.0024 21.4545 10.0023 21.6342 10.0446C21.8405 10.0932 22.0302 10.1955 22.184 10.3408C22.4913 10.6338 24.2632 13.4251 24.6052 13.9755C25.2545 13.0557 26.1087 12.5472 27.2387 12.7092C30.4782 13.1736 30.8777 17.4834 27.5453 18.3671C28.1345 19.4559 29.0148 20.4769 29.6413 21.5419C30.5034 23.0075 29.6747 23.411 28.6017 24.0952C27.2997 24.9254 26.1016 25.8157 24.7308 26.5421C24.1327 26.3516 24.0491 26.1952 24.0593 25.5527C24.0733 24.6616 23.9188 23.9205 22.9307 23.6363C22.5312 23.5227 22.1024 23.5779 21.745 23.7889C21.386 23.9977 21.0866 24.3957 21.0215 24.761C20.6982 26.5754 22.1683 26.3047 22.9327 27.1702C22.9855 27.23 23.0038 27.4962 22.9451 27.5708C22.3307 28.3522 18.6334 30.7088 17.9614 30.9939C16.9846 31.0631 16.6047 30.5382 16.11 29.775C15.5601 28.9265 15.0359 28.0621 14.4759 27.2197C14.0482 27.7643 13.5345 28.1769 12.8522 28.3699C12.0835 28.586 11.2595 28.4771 10.5738 28.0689C9.92079 27.6773 9.45231 27.0412 9.27306 26.3028C8.84056 24.581 9.84968 23.1473 11.5571 22.7858C10.7732 21.6332 9.93632 20.4541 9.23946 19.2476C8.97138 18.7836 8.83808 18.02 9.33366 17.6423C10.528 16.7295 11.8066 16.0315 13.0482 15.1679C13.4384 14.8965 14.9047 13.8959 14.9028 15.1526C14.9017 15.8987 14.7706 16.9216 15.6736 17.2661C16.88 17.7263 17.5329 17.1264 17.958 16.0668C17.7263 13.9788 16.3452 14.6763 15.9736 13.9468C15.8864 13.7757 15.9248 13.516 16.0133 13.3507C16.2584 12.8926 20.5012 10.162 21.0523 10ZM18.0158 13.5192C18.7302 14.0749 19.1602 14.5964 19.2621 15.5535C19.3367 16.31 19.1083 17.0652 18.6268 17.6547C17.6103 18.9037 15.6853 19.0644 14.4501 18.009C13.9196 17.5557 13.7375 17.0154 13.5018 16.3917C12.9441 16.9368 11.0637 18.0544 10.3086 18.5126L12.0768 21.1652C15.1756 25.747 12.1779 22.721 10.6188 24.9154C10.4604 25.1382 10.4637 26.0109 10.6422 26.245C10.8343 26.6181 11.1109 26.9263 11.546 27.0544C12.0623 27.2149 12.2572 27.1423 12.7405 26.9865C13.6286 26.7002 13.4956 24.9374 14.4134 25.0796C14.9785 25.1671 15.5164 26.4913 15.783 26.7906C16.0991 27.1454 17.5315 29.6131 17.7126 29.6839L17.8324 29.6157C18.4469 29.171 20.3121 27.8776 20.9464 27.5541C20.2373 26.969 19.7669 26.331 19.6809 25.3731C19.6095 24.6079 19.8484 23.8462 20.3441 23.2577C20.831 22.6814 21.5323 22.3276 22.2865 22.2776C23.85 22.164 25.0672 23.1226 25.3588 24.6391C26.3104 23.9429 27.9328 23.067 28.7131 22.4502C27.9376 21.5378 27.3517 20.4635 26.7216 19.5588C23.8347 15.4137 27.4237 18.234 28.3739 16.2682C29.1673 14.6267 26.736 12.9295 25.6573 14.862C25.4872 15.1667 25.1495 16.254 24.5961 16.0331C23.6148 15.5362 21.9041 11.7659 21.2438 11.3447C20.3016 12.097 19.0212 12.7147 18.0158 13.5192Z" fill="#188182"/>
</g>
<defs>
<clipPath id="clip0_5729_38065">
<rect width="60" height="60" fill="white"/>
</clipPath>
</defs>
</svg>
